<svg width="786" height="689" viewBox="0 0 786 689" fill="none" xmlns="http://www.w3.org/2000/svg">
<path fill-rule="evenodd" clip-rule="evenodd" d="M290.357 357.199C371.332 254.921 385.226 180.294 352.254 167.806C251.206 129.537 12.0955 125.839 36.9999 291C40.1126 311.642 64.6235 300.506 92.3857 287.891C126.141 272.555 164.702 255.034 175.453 289.793C158.679 283.436 143.471 276.385 143.471 276.385C146.766 291.976 160.973 310.65 177.734 327.22C177.485 330.167 177.163 333.251 176.762 336.476C157.38 329.615 137.471 320.385 137.471 320.385C140.704 335.685 154.446 353.954 170.798 370.291C169.408 376.65 167.812 383.38 166 390.5C171.582 385.29 180.262 385.26 190.297 387.941C207.65 402.209 224.579 412.596 232.964 414.063L232.734 406.845C248.014 414.84 261.379 421.755 267.612 420.198C278.972 417.359 280.945 401.278 282.878 385.52C284.257 374.271 285.617 363.186 290.357 357.199Z" fill="black"/>
<path fill-rule="evenodd" clip-rule="evenodd" d="M105.238 382.406C115.996 377.706 125.195 378.942 133.376 382.406C137.222 384.035 141.117 389.069 143.754 394.792C146.836 401.482 148.087 408.695 146.783 411.273C145.734 413.347 143.43 414.302 140.772 413.462C132.865 410.962 129.238 391.967 111.738 400.467C109.588 390.316 107.38 391.657 105.238 382.406Z" fill="#CC7910" stroke="black" stroke-width="5" stroke-linejoin="round"/>
<path fill-rule="evenodd" clip-rule="evenodd" d="M136.579 393.258C132.679 390.283 126.94 392.423 130.957 397.189C134.974 401.954 136.104 401.683 143.029 408.099C145.065 403.089 140.479 396.233 136.579 393.258Z" fill="black"/>
<path fill-rule="evenodd" clip-rule="evenodd" d="M59.9455 390.624C47.3622 399.776 50.7112 416.729 58.2471 426.177C63.0272 432.169 69.2068 436.818 72.2803 436.948C74.7542 437.053 76.7941 435.509 77.3166 432.77C77.685 430.839 77.3311 427.656 76.6935 423.14C76.2439 419.955 75.6887 416.03 75.3106 411.331C74.9754 407.164 75.922 402.788 80.2166 400.99C100.13 387.946 67.2323 383.935 59.9455 390.624Z" fill="#CC7910"/>
<path fill-rule="evenodd" clip-rule="evenodd" d="M87.1568 398.012C85.8685 399.759 83.8882 401.468 81.269 403.184C81.1328 403.273 80.9905 403.349 80.8441 403.41C79.4072 404.012 78.6522 404.945 78.2048 406.07C77.7078 407.32 77.543 408.959 77.6922 410.813C78.0624 415.414 78.6056 419.262 79.0547 422.443L79.0573 422.461C79.3764 424.722 79.6354 426.721 79.7647 428.417C79.8908 430.071 79.9144 431.657 79.6552 433.016C79.2734 435.017 78.2878 436.758 76.8075 437.955C75.3516 439.133 73.6182 439.624 71.9179 439.552C70.7154 439.501 69.4493 439.038 68.2646 438.441C67.0392 437.823 65.7232 436.969 64.3902 435.952C61.7238 433.917 58.8626 431.136 56.369 428.01C52.3484 422.969 49.3904 415.883 49.1638 408.674C48.9343 401.374 51.5379 393.84 58.6631 388.595C59.9669 387.445 61.6224 386.664 63.2921 386.123C65.0552 385.551 67.0337 385.184 69.0521 384.992C73.075 384.61 77.5062 384.902 81.0995 385.874C82.8926 386.358 84.5797 387.04 85.9184 387.972C87.2277 388.883 88.4577 390.217 88.8188 392.129C89.2041 394.169 88.486 396.21 87.1568 398.012ZM64.1599 391.106C62.7695 391.557 61.8578 392.079 61.3588 392.537C61.2788 392.61 61.1953 392.679 61.1087 392.742C55.7417 396.645 53.7588 402.12 53.9406 407.905C54.1266 413.823 56.6112 419.937 60.1264 424.343C62.413 427.21 65.0316 429.749 67.4184 431.57C68.612 432.481 69.7159 433.187 70.663 433.665C71.6507 434.163 72.3095 434.33 72.6438 434.344L72.6439 434.344C73.4175 434.377 73.9411 434.149 74.2542 433.896C74.5429 433.662 74.8385 433.262 74.9792 432.524C75.0884 431.952 75.1193 430.981 75.0011 429.431C74.8861 427.924 74.6493 426.074 74.3308 423.818L74.3236 423.767C73.8752 420.591 73.3135 416.612 72.9303 411.849C72.7442 409.536 72.8851 406.903 73.8513 404.474C74.8386 401.991 76.6291 399.887 79.3532 398.673C81.5964 397.183 82.8908 395.956 83.5677 395.039C84.215 394.161 84.146 393.799 84.1324 393.728L84.1319 393.725C84.0953 393.531 83.8899 393.054 83.0326 392.457C82.2046 391.881 80.9936 391.355 79.4637 390.941C76.411 390.116 72.4961 389.844 68.9236 390.183C67.1443 390.353 65.5128 390.668 64.1599 391.106Z" fill="black"/>
<path fill-rule="evenodd" clip-rule="evenodd" d="M60.3507 419.146C59.4759 414.269 64.3307 410.304 66.8356 416.166C69.3395 422.028 68.5249 422.883 71.1467 432.1C65.4186 431.412 61.2256 424.023 60.3507 419.146Z" fill="black"/>
<path fill-rule="evenodd" clip-rule="evenodd" d="M326.087 455.051L246.259 432.295C204.408 421.614 179.583 412.355 171.782 404.519C160.08 392.766 152.743 380.351 158.365 376.298C167.738 369.54 181.259 363.653 198.928 358.636C189.571 359.114 185.448 358.632 186.559 357.189C189.081 353.915 202.504 344.23 226.829 328.133C236.297 318.687 242.106 312.47 244.259 309.482C246.994 305.685 229.379 307.096 218.799 307.096C231.909 288.982 246.259 281.111 263.003 277.123C266.828 274.021 270.885 269.623 275.174 263.93C268.115 262.31 262.891 261.5 259.5 261.5C264.115 253.472 276.459 242.616 296.534 228.933L282.292 232.97C287.196 223.911 292.2 216.921 297.305 211.999C302.409 207.076 307.33 203.798 312.067 202.163C321.323 181.124 327.105 167.055 329.411 159.957C331.718 152.859 331.902 148.566 329.964 147.08L296.146 107.157L400.111 117.413L408.977 146.104L428.18 264.394L433.505 470.78L377.932 497.452C371.649 502.784 365.232 501.584 363.021 498.488L326.087 455.051Z" fill="#CECDC4"/>
<path fill-rule="evenodd" clip-rule="evenodd" d="M373.453 78.5843C345.489 69.4982 282.618 90.0913 274.218 117.119C272.054 124.054 282.776 149.664 299.692 161.249L300.108 161.529C313.221 170.181 332.034 167.575 333.442 166.182L333.471 166.148L333.464 166.178C332.998 168.024 329.474 181.815 326.361 189.291C323.02 197.316 316.066 210.136 316.066 210.136C316.066 210.136 298.244 218.413 295.421 223.592C302.021 220.935 306.933 222.257 306.933 222.257L298.043 240.021C298.043 240.021 276.214 252.124 274.686 256.222C279.64 255.979 286.194 257.149 286.194 257.149C286.194 257.149 272.444 277.518 269.469 282.569C260.034 285.342 237.9 301.014 237.9 301.014C237.9 301.014 261.518 296.268 256.537 302.889C251.558 309.501 230.987 332.553 230.987 332.553C230.987 332.553 213.041 340.954 196.597 355.998C203.396 354.198 210.44 352.646 215.36 351.62C217.367 351.201 218.748 354.368 217.244 355.092C212.678 357.292 207.056 359.35 200.909 361.599C190.092 365.558 177.651 370.111 166.482 377.081C160.259 380.965 163.655 393.994 165.519 401.145C166.081 403.302 166.504 404.924 166.482 405.6C166.165 415.168 228.674 432.547 246.886 433.461C219.164 441.327 195.987 465.525 195.987 465.525C195.987 465.525 203.869 471.357 217.92 478.651L245.665 458.857L224.305 481.849C231.707 485.426 240.413 489.187 250.245 492.682L267.658 465.346L256.417 494.788C266.78 498.18 278.25 501.208 290.646 503.41L284.586 473.639L297.779 504.568C304.971 505.625 312.447 506.391 320.174 506.784C320.174 506.784 318.283 472.46 300.86 450.001C320.426 464.978 327.609 488.55 329.82 495.807C329.951 496.238 330.065 496.611 330.163 496.922C330.694 498.607 332.644 499.948 335.438 500.858C336.072 504.116 336.888 507.603 337.737 511.229C338.376 513.959 339.033 516.769 339.646 519.62C331.748 522.473 328.381 536.867 328.381 536.867C328.381 536.867 324.817 548.433 329.139 559.061C337.114 573.866 361.962 561.989 361.962 561.989C361.962 561.989 414.981 567.395 421.126 579.918C426.418 590.701 427.526 589.673 429.901 587.471C430.285 587.116 430.701 586.73 431.173 586.358C444.857 575.584 440.256 543.575 440.256 543.575C440.256 543.575 436.723 530.534 428.423 522.473C420.124 514.411 405.758 512.248 395.804 516.959C386.367 511.447 376.786 515.768 376.786 515.768L367.007 495.793C368.656 494.459 370.034 492.899 371.033 491.097C378.376 477.835 388.292 434.52 390.455 405.6C390.591 403.785 392.836 403.032 394.062 404.372C397.436 408.061 402.867 414.122 407.863 420.253C403.402 398.416 393.821 381.071 393.821 381.071C393.821 381.071 390.728 350.33 390.587 342.055C390.448 333.771 406.767 351.493 406.767 351.493C406.767 351.493 398.072 325.804 392.069 318.015C392.631 312.179 393.48 287.619 393.48 287.619L393.534 287.646C394.139 287.943 399.684 290.698 403.334 293.632C404.506 289.418 393.96 266.797 393.96 266.797L397.21 247.201C397.21 247.201 401.961 249.018 405.738 255.047C406.349 250.337 401.602 241.134 398.661 235.434C397.95 234.056 397.345 232.882 396.946 232.026C403.679 203.228 406.965 154.392 404.64 143.67C402.492 106.337 392.096 84.6417 373.453 78.5843Z" fill="black"/>
<path fill-rule="evenodd" clip-rule="evenodd" d="M586.5 524.978C580.672 506.723 536.114 366.936 537.398 364.69C542.622 355.56 551.215 347.266 555.612 337.157L572.898 393.56C586.863 439.121 621.808 475.126 666.782 490.43C667.589 490.704 668.381 489.931 668.133 489.115L535.57 51.9182C533.783 46.1038 526.58 44.1065 522.053 48.1713C522.053 48.1713 491.979 73.6089 496.92 106.003C505.841 164.482 479.792 205.259 456.092 201.992C440.29 199.814 424.765 182.702 409.515 150.656C410.077 159.821 411.038 169.984 410.539 179.171C409.588 196.665 406.963 214.249 403.623 232.113C413.888 246.758 417.307 267.453 418.342 282.39C414.255 273.282 405.669 265.822 402.117 260.383C401.951 262.712 401.764 265.128 401.589 267.547C413.216 288.033 416.785 308.831 417.984 326.142C413.136 315.348 403.568 305.658 399.53 299.9C399.354 303.021 399.183 306.204 399.026 309.417C408.48 333.286 418.873 363.591 420.493 386.911C413.342 371.006 402.439 359.452 397.376 353.694C397.326 355.64 397.277 357.578 397.221 359.538C406.77 387.207 422.526 435.313 424.771 467.591C415.112 446.1 403.402 428.526 397.176 422.21C397.669 445.652 387.295 479.597 378.433 498.219C378.141 498.834 378.556 499.509 379.237 499.534C385.051 499.748 407.986 499.882 430.363 490.226C453.715 515.778 478.675 530.592 498.194 539.691C499.016 540.074 499.886 539.294 499.611 538.429C495.18 524.468 471.656 450.007 473.434 448.375C478.757 443.488 491.297 429.421 491.297 429.421C505.258 474.969 540.189 510.967 585.145 526.277C585.957 526.554 586.762 525.797 586.5 524.978Z" fill="black"/>
<path fill-rule="evenodd" clip-rule="evenodd" d="M317.461 136.077C312.992 134.879 309.646 131.563 308.215 127.5C306.785 123.437 311 123.5 315.001 118.5C318 114.75 320.515 108.943 324.449 109.997C331.639 111.923 335.92 119.347 333.992 126.543C332.067 133.728 324.651 138.003 317.461 136.077Z" fill="white"/>
<path d="M319 135C322.866 135 326 131.866 326 128C326 124.134 322.866 121 319 121C315.134 121 312 124.134 312 128C312 131.866 315.134 135 319 135Z" fill="black"/>
<path fill-rule="evenodd" clip-rule="evenodd" d="M305.334 157.952C315.803 155.492 336.243 157.862 338.311 166.617C338.785 168.628 337.452 170.647 335.488 171.292C333.018 172.102 330.197 173.203 327.178 174.492C327.23 174.322 327.255 174.235 327.255 174.235C327.255 174.235 278.663 190.815 268.729 202.722C258.792 214.627 256.086 231.734 253.738 234.207L227.556 183.512C222.566 173.746 219.897 155.665 229.551 150.262L267.049 128.213L267.193 128.207C267.193 128.207 289.013 112.766 305.334 157.952Z" fill="#D18D1E"/>
<path fill-rule="evenodd" clip-rule="evenodd" d="M227.555 183.512C222.566 173.746 219.897 155.665 229.551 150.262L267.049 128.213L267.193 128.207C267.193 128.207 289.013 112.766 305.334 157.952C315.802 155.492 336.243 157.862 338.311 166.617C338.785 168.628 337.452 170.647 335.488 171.292C334.707 171.548 333.891 171.833 333.045 172.144C331.331 172.774 329.493 173.51 327.571 174.325C327.488 174.36 327.405 174.395 327.322 174.431C327.274 174.451 327.226 174.472 327.178 174.492C327.23 174.322 327.255 174.235 327.255 174.235C327.255 174.235 327.199 174.254 327.092 174.291C327.023 174.315 326.934 174.346 326.824 174.383C326.009 174.666 324.075 175.342 321.38 176.324C308.142 181.151 276.526 193.376 268.729 202.722C262.128 210.63 258.718 220.835 256.484 227.52C256.407 227.748 256.332 227.972 256.259 228.192C255.243 231.225 254.473 233.433 253.738 234.207L227.555 183.512ZM319.525 182.339C315.083 184 309.484 186.17 303.656 188.622C297.034 191.408 290.197 194.525 284.449 197.643C278.507 200.866 274.381 203.752 272.569 205.925L272.568 205.926C268.161 211.205 265.237 217.805 263.086 223.713C262.377 225.658 261.799 227.389 261.262 228.997C260.967 229.881 260.684 230.728 260.399 231.552C260.021 232.644 259.631 233.717 259.23 234.635C258.891 235.411 258.306 236.658 257.364 237.65L252.522 242.749L223.108 185.796L223.103 185.787C220.277 180.257 218.157 172.543 218.062 165.317C217.971 158.366 219.801 150.023 227.058 145.928L265.591 123.27L265.726 123.264C265.756 123.248 265.786 123.232 265.817 123.216C266.661 122.767 267.849 122.216 269.324 121.741C272.276 120.79 276.464 120.117 281.304 121.271C290.632 123.497 300.431 131.939 308.557 152.349C313.959 151.744 320.335 152.015 325.984 153.182C329.64 153.938 333.303 155.129 336.32 156.93C339.3 158.708 342.227 161.445 343.177 165.467L343.177 165.469C344.338 170.39 341.085 174.716 337.048 176.042L337.046 176.043C334.762 176.792 332.084 177.834 329.142 179.09L319.219 183.329L319.525 182.339Z" fill="black"/>
<path fill-rule="evenodd" clip-rule="evenodd" d="M285.462 155.42C281.86 157.719 270.825 144.947 267.586 141.051C267.222 140.616 267.543 139.944 268.106 139.95C271.724 139.982 281.221 140.277 284.476 142.468C288.544 145.195 289.707 152.718 285.462 155.42Z" fill="#854205"/>
<path fill-rule="evenodd" clip-rule="evenodd" d="M283.868 151.953C281.007 153.829 271.117 142.124 271.337 141.447C271.557 140.77 280.561 141.236 283.269 143.085C285.987 144.93 286.73 150.082 283.868 151.953Z" fill="black"/>
<path fill-rule="evenodd" clip-rule="evenodd" d="M337.938 164.83C337.938 164.83 333.585 166.94 291.373 182.223C283.955 184.909 274.086 197.708 274.086 197.708L338.036 170.497C338.421 170.334 338.728 170.05 338.895 169.671C339.62 168.029 339.378 166.352 337.938 164.83Z" fill="#854605"/>
<path fill-rule="evenodd" clip-rule="evenodd" d="M312.862 173.416C322.919 170.264 333.052 166.524 340.558 160.601L342.417 162.956C334.436 169.254 323.824 173.125 313.759 176.279C311.5 176.986 309.292 177.651 307.141 178.299C304.428 179.115 301.804 179.905 299.281 180.721C294.791 182.171 290.836 183.638 287.711 185.321C284.204 187.209 280.9 190.38 278.268 193.687C275.629 197.003 267.679 208.466 267.001 210.5L264.155 209.551C264.983 207.069 273.154 195.295 275.921 191.818C278.695 188.332 282.296 184.829 286.289 182.679C289.664 180.862 293.833 179.328 298.359 177.866C300.878 177.052 303.577 176.239 306.336 175.408C308.494 174.758 310.688 174.097 312.862 173.416Z" fill="black"/>
<path fill-rule="evenodd" clip-rule="evenodd" d="M381 529.427C372.086 522.182 356.525 485.859 356.525 485.859C355.607 481.758 353.045 480.213 350.103 479.936C343.619 479.329 338.728 485.833 340.294 492.203C342.292 500.333 344.801 511.668 344.898 522.891C339.796 526.16 336.736 531.463 334.611 537.085C331.745 544.666 339.657 563.661 343.95 565.56C348.243 567.459 351.015 561.377 351.015 545.927C351.015 537.085 374 536.668 374 536.668L373.298 531.971C376.299 532.239 378.762 531.769 381 529.427ZM387.8 525.963C387.8 525.963 401.76 518.072 411.859 520.29C421.956 522.507 427.09 529.506 430.313 537.085C433.536 544.666 424.636 563.661 419.807 565.56C414.977 567.459 411.859 561.377 411.859 545.927C411.859 537.085 386 536.668 386 536.668L387.8 525.963Z" fill="#CC7910"/>
<path d="M161.301 517.423C158.409 516.364 155.173 516.155 151.972 517.013C147.978 518.083 144.769 520.62 142.767 523.888C139.504 517.534 132.15 514.089 124.971 516.013C120.648 517.171 117.244 520.048 115.296 523.711C110.274 518.933 103.479 516 96 516C82.9046 516 71.9089 524.99 68.8478 537.135C66.2491 535.167 63.0109 534 59.5 534C50.9396 534 44 540.94 44 549.5C44 550.721 44.1411 551.909 44.4079 553.048C44.1096 553.016 43.8067 553 43.5 553C38.8056 553 35 556.806 35 561.5C35 565.324 37.5257 568.559 41 569.626V685.431C41 687.402 42.8661 689 45.168 689H663.832C666.134 689 668 687.402 668 685.431V563.921C668 531 383.201 531 369.5 531C362.573 531 311.083 531 250.844 532.953C251.123 531.67 251.109 530.304 250.745 528.949C249.53 524.414 244.869 521.724 240.335 522.939C240.038 523.019 239.75 523.113 239.47 523.221C239.433 522.051 239.261 520.867 238.945 519.688C236.729 511.419 228.23 506.513 219.961 508.729C216.57 509.638 213.744 511.604 211.744 514.177C205.643 503.239 192.694 497.402 180.045 500.792C171.192 503.165 164.473 509.526 161.301 517.423Z" fill="black"/>
<path fill-rule="evenodd" clip-rule="evenodd" d="M421.457 526.761C417.831 523.247 411.532 524.861 415.017 530.25C418.502 535.639 419.721 535.478 425.992 542.897C428.852 537.901 425.084 530.276 421.457 526.761Z" fill="black"/>
<path fill-rule="evenodd" clip-rule="evenodd" d="M366.021 525.963C366.021 525.963 379.91 518.072 389.957 520.29C400.003 522.507 405.111 529.506 408.316 537.085C411.523 544.666 402.669 563.661 397.864 565.56C393.059 567.459 388.5 559.95 388.5 544.5C388.5 536.187 361.5 531 361.5 531L366.021 525.963Z" fill="#CC7910"/>
<path fill-rule="evenodd" clip-rule="evenodd" d="M404 545.568C404 540.336 397.353 538.223 395.809 541.376C394.265 544.529 396.112 550.36 395 560.897C400.954 559.21 404 550.8 404 545.568Z" fill="black"/>
<path opacity="0.2" fill-rule="evenodd" clip-rule="evenodd" d="M408.607 538.972C408.607 538.972 406.321 529.309 397 524.599C401.125 523.684 405.312 525.359 405.312 525.359C418.009 528.152 421 540.897 421 540.897L408.607 538.972Z" fill="black"/>
<path opacity="0.3" fill-rule="evenodd" clip-rule="evenodd" d="M337.417 491.606C338.463 489.604 339.753 488.011 341.411 486.585C343.041 485.18 345.021 484.039 347.221 483.478C349.418 482.973 351.787 483.042 353.854 483.727C354.591 483.876 355.247 484.182 355.902 484.487L355.902 484.487C356.216 484.633 356.53 484.78 356.853 484.909C357.469 485.265 358.052 485.664 358.631 486.061L358.631 486.061C358.91 486.252 359.189 486.442 359.47 486.628C360.154 487.081 360.344 488.002 359.892 488.685C359.473 489.319 358.652 489.528 357.991 489.197L357.808 489.105C356.188 488.298 354.598 487.509 352.956 487.149C351.32 486.683 349.678 486.817 348.14 487.191C346.582 487.538 345.088 488.317 343.765 489.394C342.483 490.47 341.208 491.844 340.287 493.17L340.202 493.292C339.688 494.032 338.672 494.214 337.932 493.701C337.249 493.226 337.041 492.324 337.417 491.606ZM338.478 498.374C339.757 496.281 341.288 494.666 343.181 493.265C345.043 491.882 347.224 490.791 349.592 490.275C351.957 489.824 354.461 489.894 356.707 490.56C357.491 490.703 358.205 490.999 358.917 491.294C359.269 491.44 359.621 491.586 359.981 491.713C360.666 492.065 361.321 492.461 361.972 492.855C362.284 493.044 362.595 493.232 362.908 493.415C363.61 493.834 363.84 494.743 363.42 495.445C363.031 496.1 362.215 496.345 361.537 496.036L361.363 495.955C359.536 495.145 357.733 494.361 355.879 493.997C354.031 493.532 352.171 493.658 350.407 494.008C348.625 494.337 346.909 495.109 345.361 496.187C343.855 497.265 342.356 498.671 341.26 500.067L341.166 500.189C340.62 500.903 339.6 501.039 338.886 500.494C338.226 499.987 338.062 499.072 338.478 498.374ZM344.95 499.944C342.822 501.322 341.051 502.959 339.537 505.144C339.083 505.822 339.201 506.75 339.84 507.289C340.527 507.865 341.551 507.775 342.128 507.088L342.232 506.965C343.502 505.499 345.225 504.06 346.955 502.981C348.728 501.903 350.667 501.136 352.674 500.826C354.664 500.501 356.74 500.382 358.802 500.845C360.867 501.215 362.882 501.995 364.917 502.806L365.082 502.876C365.776 503.162 366.587 502.881 366.949 502.206C367.336 501.486 367.065 500.588 366.346 500.202C365.992 500.017 365.64 499.827 365.287 499.637L365.287 499.637L365.287 499.637C364.572 499.251 363.854 498.863 363.107 498.519C362.713 498.394 362.325 498.249 361.937 498.105C361.165 497.818 360.392 497.53 359.558 497.393C357.136 496.747 354.495 496.676 351.963 497.074C349.427 497.545 347.046 498.584 344.95 499.944ZM340.596 511.912C342.344 509.637 344.356 507.976 346.718 506.622C349.047 505.286 351.63 504.298 354.332 503.871C357.033 503.527 359.81 503.599 362.409 504.225C363.287 504.357 364.115 504.635 364.941 504.912C365.37 505.056 365.799 505.2 366.234 505.323C367.048 505.662 367.838 506.047 368.624 506.43C369.01 506.618 369.396 506.805 369.783 506.987C370.521 507.342 370.832 508.227 370.477 508.966C370.143 509.661 369.337 509.978 368.627 509.716L368.47 509.656C366.228 508.843 364.002 508.067 361.724 507.693C359.45 507.231 357.158 507.344 354.94 507.642C352.709 507.935 350.548 508.695 348.55 509.774C346.596 510.855 344.649 512.326 343.204 513.862L343.09 513.986C342.483 514.646 341.454 514.689 340.793 514.082C340.176 513.513 340.103 512.57 340.596 511.912ZM348.488 513.301C345.891 514.632 343.638 516.314 341.656 518.682C341.125 519.32 341.152 520.275 341.749 520.876C342.383 521.515 343.415 521.519 344.052 520.884L344.178 520.76C345.797 519.154 347.968 517.651 350.146 516.569C352.369 515.489 354.752 514.735 357.207 514.46C359.651 514.186 362.16 514.081 364.646 514.542C367.137 514.921 369.575 515.691 372.025 516.507L372.173 516.556C372.9 516.796 373.701 516.443 374.006 515.726C374.329 514.97 373.976 514.096 373.22 513.774C372.793 513.592 372.368 513.404 371.942 513.215C371.091 512.838 370.237 512.461 369.361 512.129C368.89 512.008 368.424 511.866 367.957 511.724C367.073 511.454 366.188 511.184 365.261 511.059C362.485 510.452 359.572 510.379 356.704 510.669C353.834 511.052 351.05 511.989 348.488 513.301Z" fill="black"/>
<path fill-rule="evenodd" clip-rule="evenodd" d="M342.001 481.897C342.001 481.897 340.949 483.085 341.436 488.87C341.923 494.656 348.5 521.5 348.5 521.5L343.663 523.714L337 488.87C337 488.87 340.04 482.567 342.001 481.897Z" fill="black"/>
<path fill-rule="evenodd" clip-rule="evenodd" d="M127.153 384.489C96.3026 387.5 65.2497 399.766 75.9419 400.482C77.7849 400.606 94.6243 395.509 96.3027 395.693C114.593 397.694 110.945 408.175 112.057 411.519C115.038 420.483 94.6849 428.13 92.7958 434.563C90.6472 441.879 101.073 444.12 111.057 444.12C122.893 444.12 134.358 436.036 134.358 436.036C134.358 436.036 143.076 427.053 141.752 418.775C159.049 413.518 175.802 410.545 176.765 400.985C177.422 394.464 178.758 379.526 167.284 382.405L127.153 384.489Z" fill="black"/>
<path fill-rule="evenodd" clip-rule="evenodd" d="M120.817 394.044C120.817 394.044 133.734 401.072 136.146 409.997C138.559 418.924 134.65 426.307 129.409 432.487C124.168 438.669 103.719 440.958 99.9777 438.125C96.2355 435.291 100.21 429.917 113.723 422.427C121.456 418.14 110.678 397.835 110.678 397.835L120.817 394.044Z" fill="#CC7910"/>
<path fill-rule="evenodd" clip-rule="evenodd" d="M163.589 388.486C163.589 388.486 124.274 392.485 113.617 388.202C110.638 397.77 118.998 415.369 128.372 421.745C139.549 413.778 155.868 408.485 165.909 405.757C172.239 404.038 175.557 396.609 171.883 391.232C170.214 388.792 167.62 387.3 163.589 388.486Z" fill="#CC7910"/>
<path fill-rule="evenodd" clip-rule="evenodd" d="M122.291 423.411L102.132 391.138C102.132 391.138 133.866 404.843 122.291 423.411Z" fill="black"/>
<path opacity="0.5" fill-rule="evenodd" clip-rule="evenodd" d="M89.4859 392.272C100.202 392.393 123.15 403.407 111.574 421.976C108.466 412.176 106.144 407.19 104.609 407.021C85.1141 404.863 89.4859 392.272 89.4859 392.272Z" fill="black"/>
<g opacity="0.3">
<path opacity="0.3" fill-rule="evenodd" clip-rule="evenodd" d="M164.952 406.025C165.665 404.577 166.249 402.796 166.568 401.153C166.87 399.473 166.827 397.789 166.374 396.258C165.956 394.731 165.276 393.23 164.076 392.026C162.965 390.764 161.504 389.756 160.013 388.73L159.846 388.615C159.169 388.151 158.998 387.226 159.463 386.551C159.893 385.925 160.718 385.732 161.374 386.076C162.29 386.555 163.24 386.989 164.147 387.531C164.974 388.207 165.912 388.733 166.634 389.581C168.236 391.057 169.444 393.096 170.067 395.262C170.644 397.459 170.605 399.743 170.166 401.849C169.723 403.992 168.955 405.892 167.711 407.777C167.215 408.529 166.203 408.737 165.451 408.24C164.758 407.782 164.529 406.885 164.886 406.158L164.952 406.025Z" fill="black"/>
<path opacity="0.3" fill-rule="evenodd" clip-rule="evenodd" d="M158.448 408.519C159.138 406.883 159.642 404.89 159.854 403.051C160.046 401.174 159.889 399.299 159.314 397.581C158.763 395.868 157.972 394.181 156.669 392.789C155.453 391.345 153.893 390.149 152.299 388.943L152.145 388.831C151.487 388.344 151.348 387.416 151.837 386.757C152.291 386.144 153.129 385.982 153.771 386.36C154.737 386.928 155.732 387.461 156.679 388.095C157.542 388.859 158.52 389.478 159.276 390.4C160.946 392.039 162.221 394.197 162.973 396.484C163.67 398.805 163.773 401.24 163.467 403.54C163.159 405.877 162.488 407.998 161.278 410.132C160.825 410.905 159.831 411.165 159.057 410.713C158.339 410.293 158.062 409.408 158.386 408.663L158.448 408.519Z" fill="black"/>
<path opacity="0.3" fill-rule="evenodd" clip-rule="evenodd" d="M151.943 411.012C152.61 409.19 153.033 406.985 153.138 404.949C153.221 402.876 152.952 400.808 152.251 398.903C151.569 397.004 150.667 395.131 149.263 393.553C147.938 391.925 146.28 390.542 144.583 389.155L144.444 389.047C143.804 388.537 143.698 387.604 144.209 386.964C144.688 386.364 145.54 386.233 146.169 386.643C147.18 387.304 148.221 387.934 149.21 388.659C150.108 389.51 151.127 390.222 151.916 391.218C153.656 393.023 154.997 395.298 155.878 397.706C156.694 400.153 156.94 402.739 156.767 405.231C156.594 407.76 156.02 410.103 154.843 412.487C154.434 413.283 153.455 413.595 152.66 413.186C151.917 412.805 151.594 411.93 151.885 411.166L151.943 411.012Z" fill="black"/>
<path opacity="0.3" fill-rule="evenodd" clip-rule="evenodd" d="M145.44 413.505C146.083 411.497 146.425 409.081 146.424 406.848C146.399 404.577 146.016 402.319 145.19 400.226C144.377 398.142 143.363 396.082 141.857 394.317C140.425 392.506 138.668 390.935 136.869 389.367L136.744 389.263C136.121 388.73 136.049 387.793 136.583 387.17C137.085 386.584 137.952 386.486 138.567 386.926C139.623 387.682 140.712 388.407 141.743 389.223C142.675 390.161 143.736 390.966 144.557 392.036C146.366 394.006 147.774 396.399 148.783 398.928C149.72 401.499 150.108 404.237 150.068 406.921C150.029 409.644 149.553 412.209 148.41 414.841C148.043 415.66 147.083 416.025 146.265 415.658C145.499 415.316 145.128 414.451 145.385 413.671L145.44 413.505Z" fill="black"/>
<path opacity="0.3" fill-rule="evenodd" clip-rule="evenodd" d="M138.935 415.998C139.554 413.803 139.817 411.176 139.707 408.746C139.574 406.279 139.078 403.829 138.128 401.548C137.183 399.278 136.058 397.033 134.45 395.081C132.911 393.087 131.055 391.328 129.154 389.58L129.044 389.478C128.438 388.923 128.399 387.982 128.954 387.377C129.482 386.803 130.36 386.741 130.965 387.21C132.062 388.065 133.202 388.879 134.274 389.787C135.241 390.812 136.343 391.709 137.198 392.855C139.076 394.988 140.551 397.5 141.688 400.15C142.744 402.846 143.274 405.735 143.369 408.612C143.464 411.529 143.085 414.315 141.975 417.196C141.652 418.036 140.708 418.455 139.869 418.131C139.078 417.827 138.661 416.974 138.884 416.175L138.935 415.998Z" fill="black"/>
</g>
<path opacity="0.4" fill-rule="evenodd" clip-rule="evenodd" d="M173.126 397.519C173.126 397.519 172.597 399.015 167.301 401.393C162.004 403.772 136.295 411.075 136.295 411.075L136.703 416.379L169.452 405.273C169.452 405.273 173.49 399.558 173.126 397.519Z" fill="black"/>
<path d="M287.622 590.91H276.012V581.1H312.282V590.91H300.942V654H287.622V590.91Z" fill="white"/>
<path d="M318.916 581.1H336.466C344.146 581.1 349.876 582.57 353.656 585.51C357.436 588.39 359.326 593.37 359.326 600.45C359.326 605.07 358.636 608.85 357.256 611.79C355.936 614.67 353.626 616.77 350.326 618.09L360.496 654H347.176L338.446 620.61H332.146V654H318.916V581.1ZM336.376 612.33C340.156 612.33 342.826 611.46 344.386 609.72C346.006 607.98 346.816 605.13 346.816 601.17C346.816 597.33 346.096 594.54 344.656 592.8C343.276 591.06 340.756 590.19 337.096 590.19H332.146V612.33H336.376Z" fill="white"/>
<path d="M369.365 581.1H399.965V590.46H382.595V611.43H396.275V620.7H382.595V644.91H400.145V654H369.365V581.1Z" fill="white"/>
<path d="M407.861 581.1H417.131L434.861 622.68V581.1H445.841V654H437.021L419.201 610.44V654H407.861V581.1Z" fill="white"/>
<path d="M476.524 654.99C468.964 654.99 463.594 652.89 460.414 648.69C457.294 644.43 455.734 638.43 455.734 630.69V604.68C455.734 596.7 457.294 590.64 460.414 586.5C463.534 582.36 468.904 580.29 476.524 580.29C483.664 580.29 488.734 582.09 491.734 585.69C494.734 589.29 496.234 594.48 496.234 601.26V607.38H483.454V601.08C483.454 598.5 483.334 596.49 483.094 595.05C482.854 593.55 482.224 592.35 481.204 591.45C480.244 590.49 478.714 590.01 476.614 590.01C474.454 590.01 472.834 590.52 471.754 591.54C470.674 592.5 469.954 593.82 469.594 595.5C469.294 597.12 469.144 599.25 469.144 601.89V633.48C469.144 637.62 469.684 640.62 470.764 642.48C471.844 644.28 473.794 645.18 476.614 645.18C478.654 645.18 480.154 644.7 481.114 643.74C482.134 642.78 482.764 641.52 483.004 639.96C483.304 638.34 483.454 636.21 483.454 633.57V627H496.234V632.85C496.234 639.87 494.764 645.33 491.824 649.23C488.884 653.07 483.784 654.99 476.524 654.99Z" fill="white"/>
<path d="M505.688 581.1H518.917V611.52H533.767V581.1H547.087V654H533.767V621.06H518.917V654H505.688V581.1Z" fill="white"/>
<path d="M558.242 581.1H588.842V590.46H571.472V611.43H585.152V620.7H571.472V644.91H589.022V654H558.242V581.1Z" fill="white"/>
<path d="M615.098 654.99C608.498 654.99 603.548 653.13 600.248 649.41C597.008 645.69 595.238 640.14 594.938 632.76L606.368 630.51C606.548 635.13 607.268 638.67 608.528 641.13C609.848 643.53 611.888 644.73 614.648 644.73C616.688 644.73 618.188 644.13 619.148 642.93C620.168 641.67 620.678 639.99 620.678 637.89C620.678 635.01 620.018 632.58 618.698 630.6C617.438 628.56 615.428 626.34 612.668 623.94L603.488 615.93C600.668 613.53 598.538 610.95 597.098 608.19C595.718 605.43 595.028 602.13 595.028 598.29C595.028 592.59 596.678 588.18 599.978 585.06C603.338 581.88 607.958 580.29 613.838 580.29C620.138 580.29 624.638 582.09 627.338 585.69C630.098 589.23 631.688 594.03 632.108 600.09L620.678 602.07C620.498 598.11 619.928 595.14 618.968 593.16C618.068 591.12 616.268 590.1 613.568 590.1C611.648 590.1 610.148 590.76 609.068 592.08C607.988 593.34 607.448 594.96 607.448 596.94C607.448 599.28 607.898 601.26 608.798 602.88C609.758 604.44 611.288 606.12 613.388 607.92L622.478 615.93C625.898 618.87 628.568 622.02 630.488 625.38C632.408 628.74 633.368 632.64 633.368 637.08C633.368 640.56 632.588 643.65 631.028 646.35C629.528 649.05 627.398 651.18 624.638 652.74C621.878 654.24 618.698 654.99 615.098 654.99Z" fill="white"/>
<path d="M100.76 654.99C93.8603 654.99 88.8803 652.86 85.8203 648.6C82.8203 644.28 81.3203 638.07 81.3203 629.97V605.49C81.3203 597.15 82.8803 590.88 86.0003 586.68C89.1203 582.42 94.4903 580.29 102.11 580.29C109.31 580.29 114.47 582.09 117.59 585.69C120.71 589.23 122.27 594.51 122.27 601.53V605.31H109.58V601.17C109.58 598.53 109.4 596.43 109.04 594.87C108.74 593.31 108.05 592.11 106.97 591.27C105.95 590.43 104.39 590.01 102.29 590.01C100.07 590.01 98.4203 590.55 97.3403 591.63C96.2603 592.71 95.5403 594.09 95.1803 595.77C94.8803 597.45 94.7303 599.64 94.7303 602.34V632.85C94.7303 636.99 95.2703 640.08 96.3503 642.12C97.4903 644.16 99.5903 645.18 102.65 645.18C105.65 645.18 107.72 644.1 108.86 641.94C110.06 639.78 110.66 636.54 110.66 632.22V625.38H102.83V617.01H122.63V654H113.99L113.09 646.89C110.81 652.29 106.7 654.99 100.76 654.99Z" fill="#CC7910"/>
<path d="M132.764 581.1H150.314C157.994 581.1 163.724 582.57 167.504 585.51C171.284 588.39 173.174 593.37 173.174 600.45C173.174 605.07 172.484 608.85 171.104 611.79C169.784 614.67 167.474 616.77 164.174 618.09L174.344 654H161.024L152.294 620.61H145.994V654H132.764V581.1ZM150.224 612.33C154.004 612.33 156.674 611.46 158.234 609.72C159.854 607.98 160.664 605.13 160.664 601.17C160.664 597.33 159.944 594.54 158.504 592.8C157.124 591.06 154.604 590.19 150.944 590.19H145.994V612.33H150.224Z" fill="#CC7910"/>
<path d="M194.103 581.1H208.323L222.903 654H210.573L207.693 637.17H195.003L192.033 654H179.523L194.103 581.1ZM206.253 628.71L201.303 598.11L196.353 628.71H206.253Z" fill="#CC7910"/>
<path d="M230.234 581.1H247.424C253.304 581.1 257.924 581.91 261.284 583.53C264.644 585.09 267.014 587.52 268.394 590.82C269.834 594.06 270.554 598.38 270.554 603.78V630.33C270.554 635.85 269.834 640.32 268.394 643.74C267.014 647.16 264.674 649.74 261.374 651.48C258.074 653.16 253.604 654 247.964 654H230.234V581.1ZM247.604 644.73C250.544 644.73 252.674 644.22 253.994 643.2C255.314 642.18 256.154 640.77 256.514 638.97C256.874 637.11 257.054 634.38 257.054 630.78V602.88C257.054 599.64 256.844 597.18 256.424 595.5C256.004 593.82 255.104 592.59 253.724 591.81C252.404 590.97 250.304 590.55 247.424 590.55H243.464V644.73H247.604Z" fill="#CC7910"/>
<path fill-rule="evenodd" clip-rule="evenodd" d="M298.99 79.6738C298.99 79.6738 317.499 16.7947 388.55 39.5589C431.724 53.393 441.717 87.3131 435.329 115.309C443.296 128.893 430.867 160.543 430.867 160.543C430.867 160.543 361.161 160.34 355.082 136.025C350.164 116.394 334.152 98.3406 306.161 94.175C273.739 89.3389 298.99 79.6738 298.99 79.6738Z" fill="#CECDC4"/>
<path fill-rule="evenodd" clip-rule="evenodd" d="M355.676 201.284C354.122 199.802 354.05 197.367 355.51 195.863C356.972 194.359 359.421 194.333 360.965 195.807C362.52 197.289 362.588 199.707 361.117 201.236C359.67 202.732 357.212 202.77 355.676 201.284ZM358.66 183.539C360.008 182.145 362.249 182.138 363.658 183.486C365.073 184.835 365.134 187.056 363.792 188.439C362.463 189.816 360.226 189.84 358.821 188.497C357.402 187.143 357.326 184.912 358.66 183.539ZM381.931 155.256C376.561 153.746 372.245 153.236 370.012 152.419C369.384 152.19 368.701 152.488 368.392 153.069C345.047 196.959 347.788 201.866 349.476 204.379C351.177 206.912 362.73 208.11 365.287 206.347C371.045 202.375 361.74 190.866 382.444 156.548C382.732 156.07 382.478 155.41 381.931 155.256Z" fill="#CECDC4"/>
<path fill-rule="evenodd" clip-rule="evenodd" d="M298.99 79.6738C298.99 79.6738 317.499 16.7947 388.55 39.5589C431.724 53.393 441.717 87.3131 435.329 115.309C443.296 128.893 430.867 160.543 430.867 160.543C430.867 160.543 361.161 160.34 355.082 136.025C350.164 116.394 334.152 98.3406 306.161 94.175C273.739 89.3389 298.99 79.6738 298.99 79.6738Z" stroke="black" stroke-width="7"/>
<path fill-rule="evenodd" clip-rule="evenodd" d="M400.324 117.469L423.144 125.772L421.71 132.265L397.505 124.493L400.324 117.469Z" fill="black"/>
<path fill-rule="evenodd" clip-rule="evenodd" d="M396.909 123.89L420.953 131.593L419.396 137.167L394.219 130.756L396.909 123.89Z" fill="#C1000C"/>
<path fill-rule="evenodd" clip-rule="evenodd" d="M394.347 130.84L419.859 136.973L417.781 142.808L392.1 136.629L394.347 130.84Z" fill="#EEB11B"/>
<path fill-rule="evenodd" clip-rule="evenodd" d="M420.19 127.015L400.3 118.308L392.79 136.592L417.405 142.08L420.19 127.015ZM424.89 126.264L420.869 144.901C420.504 146.605 418.833 147.7 417.136 147.342L416.992 147.309L416.82 147.261L390.926 140.43L390.809 140.397C389.277 139.99 388.365 138.408 388.785 136.866C388.818 136.737 388.867 136.599 388.914 136.485L397.409 116.525L397.443 116.437C397.946 115.255 399.287 114.683 400.474 115.12L423.593 123.722C424.59 124.093 425.135 125.139 424.913 126.149L424.89 126.264Z" fill="black"/>
<path fill-rule="evenodd" clip-rule="evenodd" d="M3.38279 227.036C10.1313 242.722 25.9813 275.899 35.3928 283.122C44.8043 290.344 60.2894 311.301 66.8556 320.603L86.4231 376.384C86.795 377.444 87.9668 377.99 89.0176 377.593L84.4934 379.303C83.5005 379.679 82.9738 380.764 83.2935 381.776L87.6484 395.567L90.4665 394.606L94.1875 393.644L97.6893 392.141L104.775 389.822L106.499 389.136L110.904 387.633L105.842 373.412C105.467 372.357 104.298 371.816 103.251 372.212L99.7304 373.543C100.719 373.168 101.245 372.087 100.929 371.077L83.271 314.585V305.009V268.348C83.271 255.216 78.3463 213.904 74.2425 206.517C74.151 206.352 74.0592 206.186 73.9669 206.019C69.9168 198.69 64.7373 189.318 31.8361 202.96C4.91489 214.122 1.65006 223.662 3.38279 227.036ZM20.779 236.077L56.9526 292.809C57.1077 293.053 57.3162 293.257 57.5624 293.408L59.0138 294.295C60.0504 294.928 61.3084 293.909 60.9041 292.764C60.6656 292.088 61.0231 291.347 61.7005 291.114L67.1227 289.244C67.8038 289.009 68.5366 289.424 68.685 290.129C68.9291 291.289 70.5287 291.428 70.9688 290.327L72.054 287.614C72.1734 287.316 72.2191 286.993 72.1872 286.673L65.372 218.27C64.6993 211.518 57.6401 207.382 51.4211 210.096L25.2106 221.536C19.5808 223.993 17.4765 230.898 20.779 236.077Z" fill="#787A6D"/>
<path d="M144.92 399.485C141.074 389.265 129.742 384.019 119.461 387.699L81.103 401.431C70.8923 405.086 65.4555 416.214 68.8467 426.515L83.0015 469.511C84.7432 474.802 88.6121 479.126 93.6769 481.444L120.129 493.548C130.045 498.085 141.767 493.843 146.483 484.011L159.739 456.377C162.098 451.458 162.346 445.789 160.424 440.683L144.92 399.485Z" fill="#787A6D"/>
<path fill-rule="evenodd" clip-rule="evenodd" d="M62.9712 201.527C58.0635 200.237 49.335 200.957 32.9981 207.731C19.7203 213.236 12.6112 218.213 9.05918 221.977C5.57751 225.667 6.02759 227.51 6.0636 227.657C6.06584 227.666 6.06648 227.669 6.06446 227.665L6.11114 227.756L6.15153 227.85C9.50076 235.635 15.1136 247.77 21.0461 258.834C24.0134 264.369 27.0374 269.591 29.8787 273.852C32.774 278.194 35.3005 281.259 37.2322 282.741C42.259 286.599 48.6852 293.912 54.5429 301.204C58.8731 306.594 63.0063 312.117 66.2073 316.528C67.2642 317.984 69.157 318.569 70.8464 317.949L77.6609 315.451C79.2365 314.873 80.2839 313.373 80.2839 311.695V270.347C80.2839 263.991 79.076 250.544 77.3357 237.68C76.4687 231.27 75.4785 225.073 74.4574 220.044C73.9466 217.527 73.4346 215.336 72.9352 213.573C72.4203 211.755 71.9697 210.579 71.633 209.973C71.54 209.806 71.4469 209.637 71.3552 209.471L71.3541 209.469C69.3197 205.788 67.5397 202.727 62.9712 201.527ZM82.6128 324.492C81.931 322.311 79.5635 321.144 77.4179 321.93L74.3816 323.044C72.3281 323.797 71.2602 326.059 71.9842 328.123L87.5716 372.558C88.3153 374.678 90.6589 375.77 92.7605 374.975L94.2687 374.405C96.2502 373.656 97.3041 371.492 96.6721 369.47L82.6128 324.492ZM89.9913 382.437C88.0056 383.187 86.9522 385.358 87.5914 387.383L89.5912 393.715C89.5948 393.727 89.6072 393.733 89.6186 393.729C91.2464 393.038 92.0714 391.204 91.5011 389.53L91.0771 388.286C90.736 387.284 91.2381 386.191 92.2199 385.797C93.3146 385.358 94.5488 385.962 94.8735 387.096L95.9987 391.026C96.0774 391.301 96.3793 391.444 96.6419 391.331L97.6318 391.007C99.4248 390.42 100.376 388.466 99.7311 386.693L99.1771 385.169C98.8991 384.404 99.2513 383.554 99.9885 383.21C100.813 382.826 101.79 383.22 102.116 384.069L103.406 387.422C103.74 388.29 104.719 388.717 105.582 388.371C106.414 388.038 106.833 387.108 106.533 386.264L104.738 381.221C103.987 379.111 101.65 378.029 99.5554 378.821L89.9913 382.437ZM106.595 371.826C104.977 370.83 103.063 369.804 102.496 367.991L86.4661 316.709C86.3453 316.323 86.2839 315.92 86.2839 315.516V270.347C86.2839 263.571 85.0295 249.796 83.2815 236.875C82.4045 230.392 81.394 224.054 80.3375 218.85C79.8096 216.25 79.2635 213.899 78.7081 211.938C78.1682 210.031 77.5672 208.3 76.8779 207.059C76.7883 206.898 76.6982 206.735 76.6055 206.567L76.5219 206.416C74.5111 202.775 71.6554 197.605 64.496 195.724C57.5762 193.905 47.2644 195.32 30.7 202.188C17.0567 207.845 9.07273 213.22 4.69519 217.859C0.50702 222.298 -1.00928 226.871 0.674268 230.301C4.07745 238.205 9.74596 250.456 15.7582 261.67C18.7734 267.293 21.8983 272.7 24.8868 277.181C27.8212 281.581 30.8053 285.372 33.5793 287.501C37.9639 290.866 43.9861 297.643 49.8654 304.961C55.3585 311.799 60.5458 318.878 63.8525 323.535C64.0678 323.838 64.239 324.17 64.3621 324.521L82.0573 374.964C82.7619 376.973 81.5228 379.185 80.6514 381.128C80.1659 382.21 80.0624 383.466 80.4457 384.679L84.4925 397.494C85.1686 399.635 87.4737 400.8 89.5985 400.076L110.926 392.799C113.037 392.079 114.151 389.773 113.403 387.672L108.681 374.406C108.284 373.289 107.53 372.402 106.595 371.826ZM62.3998 220.567C61.9289 215.84 56.9875 212.945 52.6341 214.845L26.4236 226.285C22.4828 228.005 21.0098 232.839 23.3215 236.464L57.2028 289.601C57.8873 290.675 59.5319 290.692 60.7355 290.277L66.1577 288.407C67.4687 287.955 69.0012 286.825 68.8637 285.445L62.3998 220.567ZM50.234 209.346C58.3187 205.818 67.4957 211.194 68.3702 219.972L75.1854 288.375C75.2651 289.175 75.1509 289.982 74.8524 290.728L73.7672 293.441C72.712 296.079 69.7546 296.685 67.7175 295.503C66.9766 295.073 66.0988 294.774 65.289 295.054C64.5053 295.324 64.0032 296.061 63.6831 296.826C62.7448 299.067 59.9169 300.354 57.4624 298.854L56.011 297.967C55.3752 297.579 54.8366 297.05 54.436 296.422L18.2625 239.69C13.9692 232.957 16.7047 223.981 24.0235 220.786L50.234 209.346Z" fill="black"/>
<path fill-rule="evenodd" clip-rule="evenodd" d="M142.113 400.542C138.843 391.855 129.211 387.396 120.472 390.524L82.1142 404.256C73.4352 407.363 68.8138 416.821 71.6964 425.577L85.8512 468.573C87.3316 473.07 90.6202 476.746 94.9253 478.716L121.377 490.82C129.806 494.676 139.77 491.07 143.779 482.713L157.034 455.08C159.04 450.899 159.25 446.08 157.617 441.739L142.113 400.542ZM118.45 384.875C130.273 380.643 143.305 386.675 147.728 398.428L163.232 439.626C165.442 445.498 165.157 452.018 162.444 457.675L149.188 485.308C143.765 496.615 130.284 501.493 118.881 496.276L92.4288 484.172C86.6043 481.507 82.155 476.533 80.1521 470.449L65.9973 427.453C62.0973 415.607 68.3497 402.81 80.0919 398.607L118.45 384.875Z" fill="black"/>
<path fill-rule="evenodd" clip-rule="evenodd" d="M133.76 409.074L146.964 403.854L148.434 407.574L135.231 412.794C134.204 413.2 133.042 412.697 132.636 411.669C132.23 410.642 132.733 409.48 133.76 409.074Z" fill="black"/>
<path fill-rule="evenodd" clip-rule="evenodd" d="M135.648 413.723L148.94 408.733L150.346 412.478L137.054 417.467C136.02 417.856 134.867 417.332 134.479 416.298C134.09 415.264 134.614 414.111 135.648 413.723Z" fill="black"/>
<path fill-rule="evenodd" clip-rule="evenodd" d="M137.531 418.772L150.823 413.783L152.229 417.528L138.937 422.517C137.902 422.905 136.75 422.381 136.361 421.347C135.973 420.313 136.497 419.16 137.531 418.772Z" fill="black"/>
<path fill-rule="evenodd" clip-rule="evenodd" d="M139.414 423.821L152.706 418.832L154.112 422.577L140.82 427.566C139.786 427.954 138.633 427.431 138.244 426.397C137.856 425.363 138.38 424.21 139.414 423.821Z" fill="black"/>
<path fill-rule="evenodd" clip-rule="evenodd" d="M141.843 428.904L155.135 423.915L156.541 427.66L143.249 432.649C142.214 433.037 141.061 432.514 140.673 431.48C140.285 430.445 140.809 429.292 141.843 428.904Z" fill="black"/>
<path fill-rule="evenodd" clip-rule="evenodd" d="M143.726 433.954L157.018 428.965L158.424 432.71L145.132 437.699C144.098 438.087 142.945 437.563 142.556 436.529C142.168 435.495 142.692 434.342 143.726 433.954Z" fill="black"/>
<path fill-rule="evenodd" clip-rule="evenodd" d="M145.096 438.424L158.389 433.434L159.794 437.179L146.502 442.168C145.468 442.557 144.315 442.033 143.927 440.999C143.539 439.965 144.062 438.812 145.096 438.424Z" fill="black"/>
<path fill-rule="evenodd" clip-rule="evenodd" d="M145.105 450.509L158.132 456.154L156.541 459.824L143.514 454.179C142.501 453.74 142.035 452.563 142.474 451.549C142.913 450.536 144.091 450.07 145.105 450.509Z" fill="black"/>
<path fill-rule="evenodd" clip-rule="evenodd" d="M143.153 455.131L156.079 461.002L154.425 464.644L141.498 458.773C140.493 458.316 140.048 457.13 140.504 456.125C140.961 455.119 142.147 454.674 143.153 455.131Z" fill="black"/>
<path fill-rule="evenodd" clip-rule="evenodd" d="M140.913 460.033L153.84 465.904L152.186 469.546L139.259 463.675C138.254 463.218 137.809 462.032 138.265 461.027C138.722 460.021 139.908 459.576 140.913 460.033Z" fill="black"/>
<path fill-rule="evenodd" clip-rule="evenodd" d="M138.674 464.935L151.601 470.806L149.947 474.448L137.02 468.577C136.015 468.12 135.57 466.934 136.026 465.929C136.483 464.923 137.669 464.478 138.674 464.935Z" fill="black"/>
<path fill-rule="evenodd" clip-rule="evenodd" d="M136.798 470.246L149.725 476.117L148.071 479.759L135.144 473.888C134.138 473.432 133.693 472.246 134.15 471.24C134.606 470.235 135.792 469.79 136.798 470.246Z" fill="black"/>
<path fill-rule="evenodd" clip-rule="evenodd" d="M134.559 475.148L147.485 481.019L145.831 484.661L132.904 478.79C131.899 478.334 131.454 477.148 131.91 476.142C132.367 475.137 133.553 474.692 134.559 475.148Z" fill="black"/>
<path fill-rule="evenodd" clip-rule="evenodd" d="M132.367 479.278L145.294 485.149L143.64 488.791L130.713 482.92C129.707 482.463 129.262 481.278 129.719 480.272C130.176 479.266 131.361 478.821 132.367 479.278Z" fill="black"/>
<path fill-rule="evenodd" clip-rule="evenodd" d="M82.3722 288.84C85.9053 284.153 88 278.321 88 272C88 256.536 75.464 244 60 244C44.536 244 32 256.536 32 272C32 277.2 33.4173 282.068 35.8866 286.24C36.1873 288.363 36.4194 291.025 36.4135 294.171C36.397 302.968 33.5722 317.266 33.5722 317.266C37.8147 315.231 42.1512 310.607 46.0411 305.046C46.1452 306.331 46.2243 307.692 46.2699 309.128C46.6551 321.253 43.4252 341.089 43.4252 341.089C52.915 336.136 62.4307 321.464 68.9709 307.404C69.4548 312.222 69.6591 315.982 69.6591 315.982C75.4894 311.104 79.8906 299.62 82.3722 288.84Z" fill="black"/>
<path fill-rule="evenodd" clip-rule="evenodd" d="M64.4996 391.5C58.012 402.737 62.7356 408.899 66.4999 417C69.207 422.826 73.9564 424.717 80.8606 427.037C88.9323 429.749 97.7669 430.566 101.034 429.077C102.534 428.393 103.393 427.54 103.876 426.657C104.469 425.573 104.612 424.327 104.118 422.826C103.504 420.957 101.492 418.378 98.495 414.79C94.9506 410.545 77.0789 384.776 81.9996 379.5C74.4994 379.5 66.7362 387.626 64.4996 391.5Z" fill="#CC7910"/>
<path fill-rule="evenodd" clip-rule="evenodd" d="M69.7189 382.092C73.0442 379.443 77.4117 377 82.0005 377C82.9958 377 83.8962 377.59 84.2931 378.503C84.6899 379.416 84.5076 380.477 83.8287 381.205C83.8287 381.205 83.8178 381.217 83.8026 381.245C83.7867 381.274 83.7624 381.327 83.7376 381.413C83.6862 381.591 83.6419 381.879 83.6506 382.306C83.6683 383.181 83.8997 384.376 84.383 385.876C85.3452 388.862 87.1328 392.54 89.2524 396.305C93.4884 403.831 98.7583 411.203 100.415 413.187C101.915 414.983 103.218 416.586 104.23 417.993C105.218 419.366 106.063 420.733 106.494 422.046C107.185 424.149 107.021 426.117 106.071 427.856C105.288 429.288 103.98 430.482 102.071 431.352C100.852 431.908 99.3371 432.164 97.7989 432.263C96.2169 432.364 94.4142 432.308 92.5048 432.12C88.6867 431.744 84.2754 430.821 80.0652 429.407C73.2174 427.106 67.2322 423.802 65.0007 419C64.5993 418.136 63.3965 416.309 62.9526 415.411C61.48 412.432 59.9167 409.27 59.2107 405.945C58.2269 401.313 58.8207 396.337 62.3354 390.25C63.6346 387.999 66.3575 384.769 69.7189 382.092ZM72.8343 386.002C69.8799 388.356 67.6029 391.126 66.6656 392.75C63.6927 397.899 63.4043 401.623 64.1016 404.907C64.6655 407.562 65.8379 409.939 67.2324 412.767C67.7224 413.761 68.2398 414.81 68.7679 415.947C70.9769 420.7 74.6971 422.329 81.6577 424.667C85.5193 425.965 89.5611 426.806 92.9948 427.144C94.7114 427.313 96.2343 427.352 97.4798 427.273C98.769 427.19 99.5838 426.991 99.9978 426.802C101.089 426.305 101.5 425.793 101.683 425.458C101.918 425.029 102.04 424.506 101.744 423.606C101.561 423.05 101.093 422.193 100.172 420.913C99.2746 419.666 98.0737 418.185 96.5769 416.392C94.689 414.131 89.2509 406.497 84.8951 398.758C82.7188 394.891 80.7396 390.872 79.624 387.41C79.0936 385.764 78.7185 384.124 78.6581 382.621C76.7126 383.302 74.7191 384.501 72.8343 386.002Z" fill="black"/>
<path fill-rule="evenodd" clip-rule="evenodd" d="M79.4194 419.837C75.9896 416.059 78.9953 410.087 84.6309 413.872C90.2654 417.656 89.859 418.823 97.3498 425.459C91.0312 427.846 82.8492 423.615 79.4194 419.837Z" fill="black"/>
<path d="M103.5 405L125 466.5" stroke="black" stroke-width="3" stroke-linecap="round" stroke-linejoin="round"/>
<circle r="2.5014" transform="matrix(-0.965908 0.258887 0.258887 0.965908 79.9043 495.175)" fill="black"/>
<circle r="3.45105" transform="matrix(-0.965908 0.258887 0.258887 0.965908 156.227 501.227)" fill="black"/>
<circle r="3.45105" transform="matrix(-0.965908 0.258887 0.258887 0.965908 113.227 507.227)" fill="black"/>
<circle r="3.45105" transform="matrix(-0.965908 0.258887 0.258887 0.965908 182.227 489.227)" fill="black"/>
<circle r="3.45105" transform="matrix(-0.965908 0.258887 0.258887 0.965908 131.227 491.227)" fill="black"/>
<circle r="3.45105" transform="matrix(-0.965908 0.258887 0.258887 0.965908 117.227 474.227)" fill="black"/>
<circle r="3.45105" transform="matrix(-0.965908 0.258887 0.258887 0.965908 106.227 490.227)" fill="black"/>
<circle r="3.45105" transform="matrix(-0.965908 0.258887 0.258887 0.965908 125.227 499.227)" fill="black"/>
<circle r="3.45105" transform="matrix(-0.965908 0.258887 0.258887 0.965908 170.227 488.227)" fill="black"/>
<circle r="5.83353" transform="matrix(-0.965908 0.258887 0.258887 0.965908 91.1451 500.145)" fill="black"/>
<circle r="5.83353" transform="matrix(-0.965908 0.258887 0.258887 0.965908 142.145 509.145)" fill="black"/>
<circle r="5.83353" transform="matrix(-0.965908 0.258887 0.258887 0.965908 118.145 487.145)" fill="black"/>
<circle r="3.45105" transform="matrix(-0.965908 0.258887 0.258887 0.965908 102.063 481.829)" fill="black"/>
<path d="M241 78.5C246.403 74.8983 260.337 79.8402 266.804 84.3007C267.581 84.8364 267.121 85.8976 266.18 85.8227C262.275 85.5117 255.251 85.144 251.25 86.0839C245.497 87.435 233.5 83.5 241 78.5Z" fill="#004D99"/>
<path d="M241.893 98.2678C244.031 95.334 251.84 95.0214 256.636 95.9243C257.564 96.0989 257.523 97.202 256.618 97.471C254.295 98.162 251.063 99.2537 249.289 100.426C246.31 102.394 238.686 102.669 241.893 98.2678Z" fill="#004D99"/>
</svg>
